<svg width="395" height="149" viewBox="0 0 395 149" fill="none" xmlns="http://www.w3.org/2000/svg">
<path d="M73.63 148.185C62.9 148.185 53.0333 146.335 44.03 142.635C35.0267 138.935 27.195 133.817 20.535 127.28C13.9983 120.62 8.94167 112.788 5.365 103.785C1.78834 94.6583 1.40816e-06 84.73 1.40816e-06 74C1.40816e-06 63.27 1.78834 53.4033 5.365 44.4C8.94167 35.3967 13.9983 27.6267 20.535 21.09C27.195 14.43 35.0267 9.25 44.03 5.54999C53.0333 1.85 62.9 -2.5034e-06 73.63 -2.5034e-06C84.36 -2.5034e-06 94.165 1.85 103.045 5.54999C112.048 9.25 119.88 14.43 126.54 21.09C133.2 27.6267 138.318 35.3967 141.895 44.4C145.472 53.4033 147.26 63.27 147.26 74C147.26 84.73 145.472 94.6583 141.895 103.785C138.318 112.788 133.2 120.62 126.54 127.28C119.88 133.817 112.048 138.935 103.045 142.635C94.165 146.335 84.36 148.185 73.63 148.185ZM73.63 133.385C82.0167 133.385 89.725 131.905 96.755 128.945C103.908 125.862 110.075 121.668 115.255 116.365C120.558 110.938 124.628 104.648 127.465 97.495C130.302 90.2183 131.72 82.3867 131.72 74C131.72 65.6133 130.302 57.8433 127.465 50.69C124.628 43.4133 120.558 37.1233 115.255 31.82C110.075 26.3933 103.908 22.2 96.755 19.24C89.725 16.28 82.0167 14.8 73.63 14.8C65.2433 14.8 57.4733 16.28 50.32 19.24C43.1667 22.2 37 26.3933 31.82 31.82C26.64 37.1233 22.57 43.4133 19.61 50.69C16.7733 57.8433 15.355 65.6133 15.355 74C15.355 82.3867 16.7733 90.2183 19.61 97.495C22.57 104.648 26.64 110.938 31.82 116.365C37 121.668 43.1667 125.862 50.32 128.945C57.4733 131.905 65.2433 133.385 73.63 133.385ZM335.409 83.62C335.656 76.0967 337.568 69.375 341.144 63.455C344.844 57.4117 349.654 52.6633 355.574 49.21C361.618 45.7567 368.216 44.03 375.369 44.03C381.659 44.03 386.408 44.955 389.614 46.805C392.944 48.655 394.178 51.1833 393.314 54.39C392.944 56.1167 392.143 57.35 390.909 58.09C389.799 58.83 388.443 59.2 386.839 59.2C385.359 59.2 383.633 59.0767 381.659 58.83C374.383 57.9667 367.908 58.46 362.234 60.31C356.684 62.0367 352.244 64.935 348.914 69.005C345.584 73.075 343.919 77.9467 343.919 83.62H335.409ZM336.334 146.335C333.868 146.335 331.956 145.657 330.599 144.3C329.243 142.943 328.564 141.032 328.564 138.565V52.91C328.564 50.4433 329.243 48.5317 330.599 47.175C331.956 45.8183 333.868 45.14 336.334 45.14C338.801 45.14 340.651 45.8183 341.884 47.175C343.241 48.5317 343.919 50.4433 343.919 52.91V138.565C343.919 141.032 343.241 142.943 341.884 144.3C340.651 145.657 338.801 146.335 336.334 146.335Z" fill="white"/>
<path d="M211.066 147.26C203.42 147.26 195.958 146.027 188.681 143.56C181.528 140.97 175.793 137.332 171.476 132.645C169.996 131.042 169.38 129.192 169.626 127.095C169.873 124.998 170.86 123.272 172.586 121.915C174.56 120.435 176.533 119.818 178.506 120.065C180.603 120.312 182.33 121.175 183.686 122.655C186.4 125.862 190.161 128.452 194.971 130.425C199.781 132.275 205.085 133.2 210.881 133.2C219.391 133.2 225.62 131.782 229.566 128.945C233.636 125.985 235.733 122.347 235.856 118.03C235.856 113.837 233.821 110.322 229.751 107.485C225.805 104.648 219.021 102.428 209.401 100.825C196.945 98.7283 187.818 95.2133 182.021 90.28C176.348 85.3467 173.511 79.4267 173.511 72.52C173.511 66.23 175.238 60.9883 178.691 56.795C182.145 52.6017 186.646 49.4567 192.196 47.36C197.87 45.2633 203.975 44.215 210.511 44.215C218.775 44.215 225.928 45.6333 231.971 48.47C238.015 51.1833 242.886 54.8833 246.586 59.57C247.943 61.2967 248.498 63.1467 248.251 65.12C248.128 66.97 247.141 68.45 245.291 69.56C243.688 70.67 241.776 71.04 239.556 70.67C237.46 70.3 235.671 69.3133 234.191 67.71C231.108 64.38 227.593 61.975 223.646 60.495C219.7 58.8917 215.198 58.09 210.141 58.09C203.728 58.09 198.548 59.385 194.601 61.975C190.655 64.4417 188.681 67.6483 188.681 71.595C188.681 74.3083 189.36 76.6517 190.716 78.625C192.196 80.5983 194.725 82.3867 198.301 83.99C202.001 85.47 207.243 86.8267 214.026 88.06C223.276 89.6633 230.553 91.945 235.856 94.905C241.283 97.7417 245.106 101.072 247.326 104.895C249.67 108.718 250.841 112.973 250.841 117.66C250.841 123.457 249.176 128.575 245.846 133.015C242.64 137.332 238.076 140.785 232.156 143.375C226.236 145.965 219.206 147.26 211.066 147.26ZM297.838 146.335C292.658 146.335 288.095 144.978 284.148 142.265C280.202 139.428 277.118 135.543 274.898 130.61C272.678 125.677 271.568 120.003 271.568 113.59V9.61999C271.568 7.27666 272.247 5.42666 273.603 4.06999C275.083 2.58999 276.995 1.85 279.338 1.85C281.558 1.85 283.347 2.58999 284.703 4.06999C286.183 5.42666 286.923 7.27666 286.923 9.61999V113.59C286.923 118.647 287.91 122.84 289.883 126.17C291.98 129.377 294.632 130.98 297.838 130.98H302.463C304.437 130.98 306.04 131.72 307.273 133.2C308.507 134.557 309.123 136.345 309.123 138.565C309.123 140.908 308.198 142.82 306.348 144.3C304.622 145.657 302.34 146.335 299.503 146.335H297.838Z" fill="#7AC5B0"/>
</svg>
