<svg width="363" height="363" viewBox="0 0 363 363" fill="none" xmlns="http://www.w3.org/2000/svg">
<g filter="url(#filter0_i_0_1)">
<circle cx="181.5" cy="181.5" r="181.5" fill="url(#paint0_linear_0_1)"/>
</g>
<path d="M104.808 222.2C97.8483 222.2 91.4483 221 85.6083 218.6C79.7683 216.2 74.6883 212.84 70.3683 208.52C66.1283 204.2 62.8083 199.12 60.4083 193.28C58.0883 187.44 56.9283 181.04 56.9283 174.08C56.9283 167.2 58.0883 160.84 60.4083 155C62.8083 149.16 66.1283 144.08 70.3683 139.76C74.6883 135.44 79.7683 132.08 85.6083 129.68C91.4483 127.28 97.8483 126.08 104.808 126.08C111.688 126.08 118.048 127.28 123.888 129.68C129.728 132.08 134.808 135.44 139.128 139.76C143.448 144.08 146.768 149.16 149.088 155C151.488 160.84 152.688 167.2 152.688 174.08C152.688 181.04 151.488 187.44 149.088 193.28C146.768 199.12 143.448 204.2 139.128 208.52C134.808 212.84 129.728 216.2 123.888 218.6C118.048 221 111.688 222.2 104.808 222.2ZM104.808 213.32C110.328 213.32 115.448 212.36 120.168 210.44C124.888 208.44 128.968 205.68 132.408 202.16C135.928 198.56 138.648 194.4 140.568 189.68C142.488 184.88 143.448 179.68 143.448 174.08C143.448 168.56 142.488 163.44 140.568 158.72C138.648 153.92 135.928 149.76 132.408 146.24C128.968 142.64 124.888 139.88 120.168 137.96C115.448 135.96 110.328 134.96 104.808 134.96C99.2083 134.96 94.0483 135.96 89.3283 137.96C84.6083 139.88 80.4883 142.64 76.9683 146.24C73.5283 149.76 70.8483 153.92 68.9283 158.72C67.0083 163.44 66.0483 168.56 66.0483 174.08C66.0483 179.68 67.0083 184.88 68.9283 189.68C70.8483 194.4 73.5283 198.56 76.9683 202.16C80.4883 205.68 84.6083 208.44 89.3283 210.44C94.0483 212.36 99.2083 213.32 104.808 213.32ZM193.716 221.6C188.996 221.6 184.316 220.8 179.676 219.2C175.036 217.6 171.276 215.2 168.396 212C167.516 211.04 167.156 209.96 167.316 208.76C167.476 207.56 168.076 206.52 169.116 205.64C170.236 204.84 171.396 204.52 172.596 204.68C173.796 204.84 174.796 205.36 175.596 206.24C177.516 208.48 180.036 210.2 183.156 211.4C186.356 212.6 189.876 213.2 193.716 213.2C199.636 213.2 203.916 212.2 206.556 210.2C209.196 208.12 210.556 205.64 210.636 202.76C210.636 199.88 209.276 197.52 206.556 195.68C203.836 193.76 199.356 192.28 193.116 191.24C185.036 189.96 179.116 187.72 175.356 184.52C171.596 181.32 169.716 177.52 169.716 173.12C169.716 169.04 170.796 165.64 172.956 162.92C175.116 160.2 177.996 158.16 181.596 156.8C185.196 155.44 189.156 154.76 193.476 154.76C198.836 154.76 203.436 155.68 207.276 157.52C211.196 159.36 214.356 161.84 216.756 164.96C217.556 166 217.876 167.08 217.716 168.2C217.556 169.32 216.916 170.24 215.796 170.96C214.836 171.52 213.716 171.72 212.436 171.56C211.236 171.32 210.196 170.72 209.316 169.76C207.316 167.44 204.996 165.76 202.356 164.72C199.716 163.6 196.676 163.04 193.236 163.04C188.836 163.04 185.316 163.96 182.676 165.8C180.036 167.56 178.716 169.8 178.716 172.52C178.716 174.36 179.196 175.96 180.156 177.32C181.196 178.68 182.916 179.88 185.316 180.92C187.796 181.96 191.236 182.84 195.636 183.56C201.636 184.52 206.356 185.96 209.796 187.88C213.316 189.72 215.796 191.92 217.236 194.48C218.756 196.96 219.516 199.68 219.516 202.64C219.516 206.4 218.396 209.72 216.156 212.6C213.996 215.4 210.956 217.6 207.036 219.2C203.196 220.8 198.756 221.6 193.716 221.6ZM249.644 221C246.444 221 243.564 220.12 241.004 218.36C238.524 216.6 236.564 214.16 235.124 211.04C233.764 207.92 233.084 204.32 233.084 200.24V131.84C233.084 130.48 233.484 129.4 234.284 128.6C235.164 127.72 236.284 127.28 237.644 127.28C239.004 127.28 240.084 127.72 240.884 128.6C241.764 129.4 242.204 130.48 242.204 131.84V200.24C242.204 203.68 242.884 206.48 244.244 208.64C245.684 210.8 247.484 211.88 249.644 211.88H252.644C253.844 211.88 254.804 212.32 255.524 213.2C256.244 214 256.604 215.08 256.604 216.44C256.604 217.8 256.084 218.92 255.044 219.8C254.084 220.6 252.804 221 251.204 221H249.644ZM273.191 180.56C273.431 175.6 274.711 171.16 277.031 167.24C279.431 163.32 282.511 160.24 286.271 158C290.111 155.76 294.351 154.64 298.991 154.64C302.671 154.64 305.511 155.16 307.511 156.2C309.511 157.24 310.271 158.76 309.791 160.76C309.471 161.96 308.911 162.76 308.111 163.16C307.391 163.56 306.471 163.72 305.351 163.64C304.311 163.56 303.111 163.48 301.751 163.4C297.271 163 293.271 163.48 289.751 164.84C286.311 166.12 283.551 168.12 281.471 170.84C279.471 173.56 278.471 176.8 278.471 180.56H273.191ZM273.911 221C272.471 221 271.351 220.6 270.551 219.8C269.751 219 269.351 217.88 269.351 216.44V159.92C269.351 158.48 269.751 157.36 270.551 156.56C271.351 155.76 272.471 155.36 273.911 155.36C275.351 155.36 276.471 155.76 277.271 156.56C278.071 157.36 278.471 158.48 278.471 159.92V216.44C278.471 217.88 278.071 219 277.271 219.8C276.471 220.6 275.351 221 273.911 221Z" fill="white"/>
<defs>
<filter id="filter0_i_0_1" x="0" y="0" width="363" height="363" filterUnits="userSpaceOnUse" color-interpolation-filters="sRGB">
<feFlood flood-opacity="0" result="BackgroundImageFix"/>
<feBlend mode="normal" in="SourceGraphic" in2="BackgroundImageFix" result="shape"/>
<feColorMatrix in="SourceAlpha" type="matrix" values="0 0 0 0 0 0 0 0 0 0 0 0 0 0 0 0 0 0 127 0" result="hardAlpha"/>
<feOffset/>
<feGaussianBlur stdDeviation="14"/>
<feComposite in2="hardAlpha" operator="arithmetic" k2="-1" k3="1"/>
<feColorMatrix type="matrix" values="0 0 0 0 0 0 0 0 0 0 0 0 0 0 0 0 0 0 0.15 0"/>
<feBlend mode="normal" in2="shape" result="effect1_innerShadow_0_1"/>
</filter>
<linearGradient id="paint0_linear_0_1" x1="157" y1="126" x2="324.5" y2="528.5" gradientUnits="userSpaceOnUse">
<stop stop-color="#1A1A1A"/>
<stop offset="1" stop-color="#7AC5B0"/>
</linearGradient>
</defs>
</svg>
